<svg width="165" height="35" viewBox="0 0 165 35" fill="none" xmlns="http://www.w3.org/2000/svg">
<path d="M12.421 14.6911H9.62625V3.80157H4.76033V14.6911H1.95654V1.4681H12.421V14.6911Z" fill="white"/>
<path d="M19.7289 6.35211C19.144 6.35211 18.6858 6.53903 18.3542 6.91287C18.0225 7.28068 17.8326 7.80526 17.7844 8.48661H21.6554C21.6433 7.80526 21.4655 7.28068 21.1218 6.91287C20.7781 6.53903 20.3138 6.35211 19.7289 6.35211ZM20.1178 14.872C18.4898 14.872 17.2176 14.4228 16.3011 13.5244C15.3846 12.626 14.9263 11.3537 14.9263 9.70761C14.9263 8.01328 15.3484 6.70485 16.1925 5.78231C17.0427 4.85374 18.2155 4.38946 19.7108 4.38946C21.1399 4.38946 22.2523 4.79646 23.0482 5.61046C23.8442 6.42447 24.2421 7.549 24.2421 8.98405V10.3226H17.7211C17.7512 11.1065 17.9833 11.7185 18.4175 12.1587C18.8516 12.5988 19.4606 12.8189 20.2445 12.8189C20.8535 12.8189 21.4293 12.7556 21.972 12.629C22.5146 12.5024 23.0814 12.3004 23.6723 12.023V14.1575C23.1899 14.3987 22.6744 14.5765 22.1257 14.6911C21.577 14.8117 20.9077 14.872 20.1178 14.872Z" fill="white"/>
<path d="M32.0385 14.872C30.8506 14.872 29.919 14.4409 29.2437 13.5786H29.099C29.1955 14.4228 29.2437 14.9112 29.2437 15.0438V19.141H26.4851V4.57939H28.7282L29.1171 5.89084H29.2437C29.8889 4.88992 30.8446 4.38946 32.1108 4.38946C33.3047 4.38946 34.2393 4.85073 34.9146 5.77326C35.5899 6.6958 35.9276 7.9771 35.9276 9.61716C35.9276 10.6965 35.7678 11.6341 35.4482 12.43C35.1347 13.2259 34.6855 13.8319 34.1006 14.2479C33.5157 14.664 32.8283 14.872 32.0385 14.872ZM31.2244 6.59631C30.5431 6.59631 30.0457 6.80735 29.7321 7.22942C29.4186 7.64547 29.2558 8.33586 29.2437 9.30061V9.59908C29.2437 10.6844 29.4035 11.4622 29.7231 11.9325C30.0487 12.4029 30.5612 12.638 31.2606 12.638C32.4967 12.638 33.1147 11.619 33.1147 9.58099C33.1147 8.5861 32.961 7.84143 32.6535 7.347C32.352 6.84654 31.8756 6.59631 31.2244 6.59631Z" fill="white"/>
<path d="M47.5407 7.22942C47.5407 7.77209 47.3688 8.23638 47.0251 8.62227C46.6875 9.00214 46.187 9.24634 45.5238 9.35487V9.42723C46.2413 9.51165 46.8081 9.75886 47.2241 10.1689C47.6462 10.5729 47.8572 11.0733 47.8572 11.6703C47.8572 12.6531 47.4713 13.4038 46.6995 13.9223C45.9277 14.4349 44.8243 14.6911 43.3893 14.6911H38.2068V4.57939H43.3893C44.7761 4.57939 45.8132 4.80551 46.5006 5.25773C47.194 5.70392 47.5407 6.36115 47.5407 7.22942ZM44.9992 11.5255C44.9992 11.1276 44.8454 10.8412 44.5379 10.6663C44.2304 10.4854 43.7691 10.395 43.1541 10.395H40.9653V12.7827H43.2084C43.7932 12.7827 44.2364 12.6742 44.5379 12.4571C44.8454 12.234 44.9992 11.9235 44.9992 11.5255ZM44.7459 7.44649C44.7459 6.83147 44.2575 6.52396 43.2807 6.52396H40.9653V8.52278H42.9642C43.549 8.52278 43.9922 8.43837 44.2937 8.26954C44.5952 8.10071 44.7459 7.82636 44.7459 7.44649Z" fill="white"/>
<path d="M52.8136 8.48661H54.1431C55.6867 8.48661 56.8293 8.73382 57.571 9.22825C58.3126 9.72268 58.6835 10.4704 58.6835 11.4713C58.6835 12.5385 58.3126 13.3435 57.571 13.8862C56.8293 14.4228 55.7199 14.6911 54.2426 14.6911H50.055V4.57939H52.8136V8.48661ZM55.9249 11.5075C55.9249 11.1155 55.7681 10.8321 55.4546 10.6573C55.141 10.4824 54.6737 10.395 54.0527 10.395H52.8136V12.7827H54.0889C55.3129 12.7827 55.9249 12.3576 55.9249 11.5075ZM62.9072 14.6911H60.1487V4.57939H62.9072V14.6911Z" fill="white"/>
<path d="M68.4786 4.57939V8.57705C68.4786 8.99913 68.4093 10.0302 68.2706 11.6703L72.9375 4.57939H76.2569V14.6911H73.5887V10.6573C73.5887 9.93975 73.649 8.92677 73.7696 7.61834L69.1208 14.6911H65.8105V4.57939H68.4786ZM75.4429 0.229004C75.3283 1.35655 74.9032 2.17959 74.1676 2.69814C73.432 3.21066 72.3708 3.46692 70.9839 3.46692C69.5549 3.46692 68.4967 3.21971 67.8093 2.72528C67.128 2.23085 66.7451 1.39876 66.6607 0.229004H69.1298C69.172 0.850058 69.3258 1.28721 69.5911 1.54045C69.8624 1.78767 70.3448 1.91128 71.0382 1.91128C71.6472 1.91128 72.0994 1.77561 72.3949 1.50427C72.6964 1.22691 72.8803 0.80182 72.9466 0.229004H75.4429Z" fill="white"/>
<path d="M82.6151 12.3576H83.6372C84.5115 10.609 85.2018 8.86346 85.7083 7.12089C86.2148 5.37229 86.5917 3.48803 86.8389 1.4681H94.5448V12.3576H96.3085V18.5441H93.6042V14.6911H85.3194V18.5441H82.6151V12.3576ZM89.0638 3.80157C88.8709 5.18236 88.5483 6.64455 88.0961 8.18814C87.6499 9.73173 87.1464 11.1216 86.5857 12.3576H91.75V3.80157H89.0638Z" fill="white"/>
<path d="M102.323 6.35211C101.738 6.35211 101.28 6.53903 100.948 6.91287C100.617 7.28068 100.427 7.80526 100.378 8.48661H104.25C104.237 7.80526 104.06 7.28068 103.716 6.91287C103.372 6.53903 102.908 6.35211 102.323 6.35211ZM102.712 14.872C101.084 14.872 99.8117 14.4228 98.8952 13.5244C97.9787 12.626 97.5204 11.3537 97.5204 9.70761C97.5204 8.01328 97.9425 6.70485 98.7866 5.78231C99.6368 4.85374 100.81 4.38946 102.305 4.38946C103.734 4.38946 104.846 4.79646 105.642 5.61046C106.438 6.42447 106.836 7.549 106.836 8.98405V10.3226H100.315C100.345 11.1065 100.577 11.7185 101.012 12.1587C101.446 12.5988 102.055 12.8189 102.839 12.8189C103.448 12.8189 104.023 12.7556 104.566 12.629C105.109 12.5024 105.676 12.3004 106.266 12.023V14.1575C105.784 14.3987 105.269 14.5765 104.72 14.6911C104.171 14.8117 103.502 14.872 102.712 14.872Z" fill="white"/>
<path d="M117.445 4.57939V6.65058H114.135V14.6911H111.377V6.65058H108.057V4.57939H117.445Z" fill="white"/>
<path d="M123.442 14.872C120.294 14.872 118.721 13.1445 118.721 9.68952C118.721 7.97107 119.149 6.65962 120.005 5.75518C120.861 4.8447 122.088 4.38946 123.686 4.38946C124.856 4.38946 125.905 4.61859 126.834 5.07684L126.02 7.21134C125.585 7.03648 125.181 6.89478 124.808 6.78624C124.434 6.67168 124.06 6.6144 123.686 6.6144C122.251 6.6144 121.533 7.63341 121.533 9.67143C121.533 11.6492 122.251 12.638 123.686 12.638C124.217 12.638 124.708 12.5687 125.16 12.43C125.613 12.2853 126.065 12.0622 126.517 11.7607V14.1213C126.071 14.4047 125.619 14.6007 125.16 14.7092C124.708 14.8177 124.135 14.872 123.442 14.872Z" fill="white"/>
<path d="M135.498 4.57939H138.537L134.53 9.42723L138.89 14.6911H135.76L131.627 9.5629V14.6911H128.869V4.57939H131.627V9.49054L135.498 4.57939Z" fill="white"/>
<path d="M143.005 4.57939V8.57705C143.005 8.99913 142.936 10.0302 142.797 11.6703L147.464 4.57939H150.783V14.6911H148.115V10.6573C148.115 9.93975 148.175 8.92677 148.296 7.61834L143.647 14.6911H140.337V4.57939H143.005Z" fill="white"/>
<path d="M156.355 4.57939V8.57705C156.355 8.99913 156.285 10.0302 156.147 11.6703L160.814 4.57939H164.133V14.6911H161.465V10.6573C161.465 9.93975 161.525 8.92677 161.646 7.61834L156.997 14.6911H153.687V4.57939H156.355ZM163.319 0.229004C163.204 1.35655 162.779 2.17959 162.044 2.69814C161.308 3.21066 160.247 3.46692 158.86 3.46692C157.431 3.46692 156.373 3.21971 155.685 2.72528C155.004 2.23085 154.621 1.39876 154.537 0.229004H157.006C157.048 0.850058 157.202 1.28721 157.467 1.54045C157.738 1.78767 158.221 1.91128 158.914 1.91128C159.523 1.91128 159.975 1.77561 160.271 1.50427C160.572 1.22691 160.756 0.80182 160.823 0.229004H163.319Z" fill="white"/>
<path d="M12.6471 34.5373H9.44536L6.37024 29.5357L3.29512 34.5373H0.292358L4.67893 27.7177L0.572737 21.3142H3.66595L6.51495 26.0716L9.3097 21.3142H12.3305L8.17914 27.8715L12.6471 34.5373Z" fill="white"/>
<path d="M16.292 29.4633C16.292 30.4642 16.4548 31.221 16.7804 31.7335C17.1121 32.246 17.6487 32.5023 18.3903 32.5023C19.126 32.5023 19.6536 32.249 19.9731 31.7425C20.2987 31.23 20.4615 30.4703 20.4615 29.4633C20.4615 28.4624 20.2987 27.7117 19.9731 27.2112C19.6475 26.7108 19.1139 26.4606 18.3723 26.4606C17.6366 26.4606 17.106 26.7108 16.7804 27.2112C16.4548 27.7057 16.292 28.4564 16.292 29.4633ZM23.2834 29.4633C23.2834 31.1094 22.8493 32.3967 21.981 33.3253C21.1127 34.2539 19.9038 34.7182 18.3542 34.7182C17.3834 34.7182 16.5272 34.5071 15.7855 34.085C15.0439 33.6569 14.4741 33.0449 14.0761 32.249C13.6782 31.4531 13.4792 30.5245 13.4792 29.4633C13.4792 27.8112 13.9103 26.5269 14.7726 25.6104C15.6348 24.6939 16.8468 24.2356 18.4084 24.2356C19.3792 24.2356 20.2354 24.4467 20.9771 24.8687C21.7187 25.2908 22.2885 25.8968 22.6865 26.6867C23.0844 27.4765 23.2834 28.4021 23.2834 29.4633Z" fill="white"/>
<path d="M29.6688 34.7182C26.5213 34.7182 24.9476 32.9907 24.9476 29.5357C24.9476 27.8172 25.3757 26.5058 26.2319 25.6013C27.0881 24.6909 28.3151 24.2356 29.913 24.2356C31.0828 24.2356 32.1319 24.4647 33.0605 24.923L32.2465 27.0575C31.8123 26.8826 31.4084 26.7409 31.0345 26.6324C30.6607 26.5178 30.2868 26.4606 29.913 26.4606C28.4779 26.4606 27.7604 27.4796 27.7604 29.5176C27.7604 31.4953 28.4779 32.4842 29.913 32.4842C30.4436 32.4842 30.935 32.4148 31.3872 32.2761C31.8395 32.1314 32.2917 31.9083 32.7439 31.6069V33.9675C32.2977 34.2509 31.8455 34.4468 31.3872 34.5554C30.935 34.6639 30.3622 34.7182 29.6688 34.7182Z" fill="white"/>
<path d="M44.2847 24.4255V34.5373H41.5171V26.4967H37.854V34.5373H35.0955V24.4255H44.2847Z" fill="white"/>
<path d="M49.847 24.4255V28.4232C49.847 28.8453 49.7777 29.8763 49.639 31.5164L54.3059 24.4255H57.6253V34.5373H54.9571V30.5034C54.9571 29.7859 55.0174 28.7729 55.138 27.4645L50.4892 34.5373H47.1789V24.4255H49.847Z" fill="white"/>
<path d="M64.6347 34.7182C61.4872 34.7182 59.9135 32.9907 59.9135 29.5357C59.9135 27.8172 60.3416 26.5058 61.1978 25.6013C62.054 24.6909 63.2811 24.2356 64.8789 24.2356C66.0487 24.2356 67.0978 24.4647 68.0264 24.923L67.2124 27.0575C66.7783 26.8826 66.3743 26.7409 66.0004 26.6324C65.6266 26.5178 65.2528 26.4606 64.8789 26.4606C63.4439 26.4606 62.7263 27.4796 62.7263 29.5176C62.7263 31.4953 63.4439 32.4842 64.8789 32.4842C65.4095 32.4842 65.9009 32.4148 66.3532 32.2761C66.8054 32.1314 67.2576 31.9083 67.7098 31.6069V33.9675C67.2636 34.2509 66.8114 34.4468 66.3532 34.5554C65.9009 34.6639 65.3281 34.7182 64.6347 34.7182Z" fill="white"/>
</svg>
