<svg width="160" height="35" viewBox="0 0 160 35" fill="none" xmlns="http://www.w3.org/2000/svg">
<path d="M2.25537 14.7949V1.94531H12.4243V14.7949H9.7085V4.21289H4.97998V14.7949H2.25537ZM19.5083 4.78418C20.4165 4.78418 21.1987 4.95996 21.855 5.31152C22.5112 5.65723 23.0181 6.16113 23.3755 6.82324C23.7329 7.48535 23.9116 8.29395 23.9116 9.24902V10.5498H17.5747C17.604 11.3057 17.8296 11.9004 18.2515 12.334C18.6792 12.7617 19.271 12.9756 20.0269 12.9756C20.6538 12.9756 21.228 12.9111 21.7495 12.7822C22.271 12.6533 22.8071 12.46 23.3579 12.2021V14.2764C22.8716 14.5166 22.3618 14.6924 21.8286 14.8037C21.3013 14.915 20.6597 14.9707 19.9038 14.9707C18.9194 14.9707 18.0464 14.7891 17.2847 14.4258C16.5288 14.0625 15.9341 13.5088 15.5005 12.7646C15.0728 12.0205 14.8589 11.083 14.8589 9.95215C14.8589 8.80371 15.0522 7.84863 15.439 7.08691C15.8315 6.31934 16.3765 5.74512 17.0737 5.36426C17.771 4.97754 18.5825 4.78418 19.5083 4.78418ZM19.5259 6.69141C19.0044 6.69141 18.5708 6.8584 18.2251 7.19238C17.8853 7.52637 17.689 8.05078 17.6362 8.76562H21.3979C21.3921 8.36719 21.3188 8.0127 21.1782 7.70215C21.0435 7.3916 20.8384 7.14551 20.563 6.96387C20.2935 6.78223 19.9478 6.69141 19.5259 6.69141ZM31.5581 4.78418C32.6655 4.78418 33.5591 5.21484 34.2388 6.07617C34.9243 6.9375 35.2671 8.2002 35.2671 9.86426C35.2671 10.9775 35.106 11.915 34.7837 12.6768C34.4614 13.4326 34.0161 14.0039 33.4478 14.3906C32.8794 14.7773 32.2261 14.9707 31.4878 14.9707C31.0132 14.9707 30.606 14.9121 30.2661 14.7949C29.9263 14.6719 29.6362 14.5166 29.396 14.3291C29.1558 14.1357 28.9478 13.9307 28.772 13.7139H28.6313C28.6782 13.9482 28.7134 14.1885 28.7368 14.4346C28.7603 14.6807 28.772 14.9209 28.772 15.1553V19.1191H26.0913V4.96875H28.271L28.6489 6.24316H28.772C28.9478 5.97949 29.1616 5.73633 29.4136 5.51367C29.6655 5.29102 29.9673 5.11523 30.3188 4.98633C30.6763 4.85156 31.0894 4.78418 31.5581 4.78418ZM30.6968 6.92871C30.228 6.92871 29.856 7.02539 29.5806 7.21875C29.3052 7.41211 29.103 7.70215 28.9741 8.08887C28.8511 8.47559 28.7837 8.96484 28.772 9.55664V9.84668C28.772 10.4795 28.8306 11.0156 28.9478 11.4551C29.0708 11.8945 29.2729 12.2285 29.5542 12.457C29.8413 12.6855 30.2339 12.7998 30.7319 12.7998C31.1421 12.7998 31.479 12.6855 31.7427 12.457C32.0063 12.2285 32.2026 11.8945 32.3315 11.4551C32.4663 11.0098 32.5337 10.4678 32.5337 9.8291C32.5337 8.86816 32.3843 8.14453 32.0854 7.6582C31.7866 7.17188 31.3237 6.92871 30.6968 6.92871ZM46.1919 7.54395C46.1919 8.07129 46.0249 8.52246 45.6909 8.89746C45.3628 9.2666 44.8765 9.50391 44.2319 9.60938V9.67969C44.9116 9.76172 45.4595 9.99902 45.8755 10.3916C46.2915 10.7783 46.4995 11.2676 46.4995 11.8594C46.4995 12.4219 46.353 12.9258 46.0601 13.3711C45.7671 13.8105 45.3013 14.1592 44.6626 14.417C44.0239 14.6689 43.189 14.7949 42.1577 14.7949H37.4819V4.96875H42.1577C42.9253 4.96875 43.6138 5.05078 44.2231 5.21484C44.8325 5.37305 45.313 5.63965 45.6646 6.01465C46.0161 6.38965 46.1919 6.89941 46.1919 7.54395ZM43.7222 11.7188C43.7222 11.332 43.5698 11.0537 43.2651 10.8838C42.9663 10.708 42.521 10.6201 41.9292 10.6201H40.1626V12.9404H41.9819C42.4858 12.9404 42.9019 12.8467 43.23 12.6592C43.5581 12.4717 43.7222 12.1582 43.7222 11.7188ZM43.4761 7.75488C43.4761 7.4502 43.356 7.22461 43.1157 7.07812C42.8755 6.93164 42.521 6.8584 42.0522 6.8584H40.1626V8.80078H41.7446C42.313 8.80078 42.7437 8.71875 43.0366 8.55469C43.3296 8.39062 43.4761 8.12402 43.4761 7.75488ZM48.8022 14.7949V4.96875H51.4829V8.76562H52.7749C53.7769 8.76562 54.603 8.87109 55.2534 9.08203C55.9097 9.29297 56.396 9.61523 56.7124 10.0488C57.0288 10.4766 57.187 11.0156 57.187 11.666C57.187 12.2988 57.0405 12.8496 56.7476 13.3184C56.4546 13.7871 55.9917 14.1504 55.3589 14.4082C54.7261 14.666 53.897 14.7949 52.8716 14.7949H48.8022ZM51.4829 12.9404H52.7222C53.2437 12.9404 53.6714 12.8467 54.0054 12.6592C54.3394 12.4658 54.5063 12.1465 54.5063 11.7012C54.5063 11.3203 54.354 11.0449 54.0493 10.875C53.7446 10.7051 53.2905 10.6201 52.687 10.6201H51.4829V12.9404ZM58.6108 14.7949V4.96875H61.2915V14.7949H58.6108ZM66.7056 4.96875V8.85352C66.7056 9.05273 66.6968 9.30469 66.6792 9.60938C66.6675 9.9082 66.6499 10.2129 66.6265 10.5234C66.603 10.834 66.5796 11.1123 66.5562 11.3584C66.5327 11.6045 66.5151 11.7715 66.5034 11.8594L71.0386 4.96875H74.2642V14.7949H71.6714V10.875C71.6714 10.5527 71.6831 10.1982 71.7065 9.81152C71.73 9.41895 71.7563 9.0498 71.7856 8.7041C71.8149 8.3584 71.8354 8.09766 71.8472 7.92188L67.3296 14.7949H64.1128V4.96875H66.7056ZM73.5259 0.741211C73.4614 1.3623 73.2856 1.91016 72.9985 2.38477C72.7114 2.85938 72.2632 3.22852 71.6538 3.49219C71.0444 3.75586 70.2241 3.8877 69.1929 3.8877C68.1323 3.8877 67.3062 3.76172 66.7144 3.50977C66.1226 3.25195 65.7007 2.88867 65.4487 2.41992C65.1968 1.94531 65.0444 1.38574 64.9917 0.741211H67.3911C67.4438 1.40332 67.6108 1.84277 67.8921 2.05957C68.1733 2.27051 68.6245 2.37598 69.2456 2.37598C69.7612 2.37598 70.1831 2.25879 70.5112 2.02441C70.8394 1.79004 71.0356 1.3623 71.1001 0.741211H73.5259ZM92.0356 1.94531V12.5273H93.7495V18.5391H91.1216V14.7949H83.0708V18.5391H80.4429V12.5273H81.436C81.77 11.8594 82.0923 11.1533 82.4028 10.4092C82.7134 9.66504 83.0034 8.86523 83.2729 8.00977C83.5425 7.1543 83.7856 6.22559 84.0024 5.22363C84.2192 4.22168 84.4009 3.12891 84.5474 1.94531H92.0356ZM89.3198 4.21289H86.7095C86.6216 4.83398 86.5015 5.49609 86.3491 6.19922C86.1968 6.90234 86.0151 7.62012 85.8042 8.35254C85.5991 9.0791 85.3677 9.79688 85.1099 10.5059C84.8579 11.2148 84.5884 11.8887 84.3013 12.5273H89.3198V4.21289ZM99.5767 4.78418C100.485 4.78418 101.267 4.95996 101.923 5.31152C102.58 5.65723 103.086 6.16113 103.444 6.82324C103.801 7.48535 103.98 8.29395 103.98 9.24902V10.5498H97.6431C97.6724 11.3057 97.8979 11.9004 98.3198 12.334C98.7476 12.7617 99.3394 12.9756 100.095 12.9756C100.722 12.9756 101.296 12.9111 101.818 12.7822C102.339 12.6533 102.875 12.46 103.426 12.2021V14.2764C102.94 14.5166 102.43 14.6924 101.897 14.8037C101.37 14.915 100.728 14.9707 99.9722 14.9707C98.9878 14.9707 98.1147 14.7891 97.353 14.4258C96.5972 14.0625 96.0024 13.5088 95.5688 12.7646C95.1411 12.0205 94.9272 11.083 94.9272 9.95215C94.9272 8.80371 95.1206 7.84863 95.5073 7.08691C95.8999 6.31934 96.4448 5.74512 97.1421 5.36426C97.8394 4.97754 98.6509 4.78418 99.5767 4.78418ZM99.5942 6.69141C99.0728 6.69141 98.6392 6.8584 98.2935 7.19238C97.9536 7.52637 97.7573 8.05078 97.7046 8.76562H101.466C101.46 8.36719 101.387 8.0127 101.247 7.70215C101.112 7.3916 100.907 7.14551 100.631 6.96387C100.362 6.78223 100.016 6.69141 99.5942 6.69141ZM114.29 6.98145H111.073V14.7949H108.392V6.98145H105.167V4.96875H114.29V6.98145ZM120.117 14.9707C119.144 14.9707 118.315 14.7949 117.629 14.4434C116.944 14.0859 116.422 13.5352 116.065 12.791C115.708 12.0469 115.529 11.0947 115.529 9.93457C115.529 8.7334 115.731 7.75488 116.135 6.99902C116.545 6.2373 117.111 5.67773 117.832 5.32031C118.558 4.96289 119.399 4.78418 120.354 4.78418C121.034 4.78418 121.62 4.85156 122.112 4.98633C122.61 5.11523 123.043 5.27051 123.413 5.45215L122.622 7.52637C122.2 7.35645 121.807 7.21875 121.444 7.11328C121.081 7.00195 120.717 6.94629 120.354 6.94629C119.885 6.94629 119.496 7.05762 119.185 7.28027C118.875 7.49707 118.643 7.8252 118.491 8.26465C118.338 8.7041 118.262 9.25488 118.262 9.91699C118.262 10.5674 118.344 11.1064 118.508 11.5342C118.672 11.9619 118.91 12.2812 119.22 12.4922C119.531 12.6973 119.909 12.7998 120.354 12.7998C120.911 12.7998 121.406 12.7266 121.839 12.5801C122.273 12.4277 122.695 12.2168 123.105 11.9473V14.2412C122.695 14.499 122.264 14.6836 121.813 14.7949C121.368 14.9121 120.802 14.9707 120.117 14.9707ZM131.833 4.96875H134.786L130.892 9.67969L135.128 14.7949H132.087L128.071 9.81152V14.7949H125.39V4.96875H128.071V9.74121L131.833 4.96875ZM139.127 4.96875V8.85352C139.127 9.05273 139.119 9.30469 139.101 9.60938C139.089 9.9082 139.072 10.2129 139.048 10.5234C139.025 10.834 139.001 11.1123 138.978 11.3584C138.955 11.6045 138.937 11.7715 138.925 11.8594L143.46 4.96875H146.686V14.7949H144.093V10.875C144.093 10.5527 144.105 10.1982 144.128 9.81152C144.152 9.41895 144.178 9.0498 144.208 8.7041C144.237 8.3584 144.257 8.09766 144.269 7.92188L139.751 14.7949H136.535V4.96875H139.127ZM152.1 4.96875V8.85352C152.1 9.05273 152.091 9.30469 152.074 9.60938C152.062 9.9082 152.044 10.2129 152.021 10.5234C151.998 10.834 151.974 11.1123 151.951 11.3584C151.927 11.6045 151.91 11.7715 151.898 11.8594L156.433 4.96875H159.659V14.7949H157.066V10.875C157.066 10.5527 157.078 10.1982 157.101 9.81152C157.125 9.41895 157.151 9.0498 157.18 8.7041C157.209 8.3584 157.23 8.09766 157.242 7.92188L152.724 14.7949H149.507V4.96875H152.1ZM158.92 0.741211C158.856 1.3623 158.68 1.91016 158.393 2.38477C158.106 2.85938 157.658 3.22852 157.048 3.49219C156.439 3.75586 155.619 3.8877 154.587 3.8877C153.527 3.8877 152.701 3.76172 152.109 3.50977C151.517 3.25195 151.095 2.88867 150.843 2.41992C150.591 1.94531 150.439 1.38574 150.386 0.741211H152.786C152.838 1.40332 153.005 1.84277 153.287 2.05957C153.568 2.27051 154.019 2.37598 154.64 2.37598C155.156 2.37598 155.578 2.25879 155.906 2.02441C156.234 1.79004 156.43 1.3623 156.495 0.741211H158.92ZM12.644 34.7949H9.53271L6.54443 29.9346L3.55615 34.7949H0.638184L4.90088 28.168L0.910645 21.9453H3.9165L6.68506 26.5684L9.40088 21.9453H12.3364L8.30225 28.3174L12.644 34.7949ZM22.98 29.8643C22.98 30.6846 22.8687 31.4111 22.646 32.0439C22.4292 32.6768 22.1099 33.2129 21.688 33.6523C21.272 34.0859 20.7681 34.4141 20.1763 34.6367C19.5903 34.8594 18.9282 34.9707 18.1899 34.9707C17.4985 34.9707 16.8628 34.8594 16.2827 34.6367C15.7085 34.4141 15.2075 34.0859 14.7798 33.6523C14.3579 33.2129 14.0298 32.6768 13.7954 32.0439C13.5669 31.4111 13.4526 30.6846 13.4526 29.8643C13.4526 28.7744 13.646 27.8516 14.0327 27.0957C14.4194 26.3398 14.9702 25.7656 15.6851 25.373C16.3999 24.9805 17.2524 24.7842 18.2427 24.7842C19.1626 24.7842 19.9771 24.9805 20.686 25.373C21.4009 25.7656 21.9604 26.3398 22.3647 27.0957C22.7749 27.8516 22.98 28.7744 22.98 29.8643ZM16.186 29.8643C16.186 30.5088 16.2563 31.0508 16.397 31.4902C16.5376 31.9297 16.7573 32.2607 17.0562 32.4834C17.355 32.7061 17.7446 32.8174 18.2251 32.8174C18.6997 32.8174 19.0835 32.7061 19.3765 32.4834C19.6753 32.2607 19.8921 31.9297 20.0269 31.4902C20.1675 31.0508 20.2378 30.5088 20.2378 29.8643C20.2378 29.2139 20.1675 28.6748 20.0269 28.2471C19.8921 27.8135 19.6753 27.4883 19.3765 27.2715C19.0776 27.0547 18.688 26.9463 18.2075 26.9463C17.4985 26.9463 16.9829 27.1895 16.6606 27.6758C16.3442 28.1621 16.186 28.8916 16.186 29.8643ZM29.1851 34.9707C28.2124 34.9707 27.3833 34.7949 26.6978 34.4434C26.0122 34.0859 25.4907 33.5352 25.1333 32.791C24.7759 32.0469 24.5972 31.0947 24.5972 29.9346C24.5972 28.7334 24.7993 27.7549 25.2036 26.999C25.6138 26.2373 26.1792 25.6777 26.8999 25.3203C27.6265 24.9629 28.4673 24.7842 29.4224 24.7842C30.1021 24.7842 30.688 24.8516 31.1802 24.9863C31.6782 25.1152 32.1118 25.2705 32.481 25.4521L31.6899 27.5264C31.2681 27.3564 30.8755 27.2188 30.5122 27.1133C30.1489 27.002 29.7856 26.9463 29.4224 26.9463C28.9536 26.9463 28.564 27.0576 28.2534 27.2803C27.9429 27.4971 27.7114 27.8252 27.5591 28.2646C27.4067 28.7041 27.3306 29.2549 27.3306 29.917C27.3306 30.5674 27.4126 31.1064 27.5767 31.5342C27.7407 31.9619 27.978 32.2812 28.2886 32.4922C28.5991 32.6973 28.9771 32.7998 29.4224 32.7998C29.979 32.7998 30.4741 32.7266 30.9077 32.5801C31.3413 32.4277 31.7632 32.2168 32.1733 31.9473V34.2412C31.7632 34.499 31.3325 34.6836 30.8813 34.7949C30.436 34.9121 29.8706 34.9707 29.1851 34.9707ZM43.3882 24.9688V34.7949H40.6987V26.9814H37.1392V34.7949H34.4585V24.9688H43.3882ZM48.7935 24.9688V28.8535C48.7935 29.0527 48.7847 29.3047 48.7671 29.6094C48.7554 29.9082 48.7378 30.2129 48.7144 30.5234C48.6909 30.834 48.6675 31.1123 48.644 31.3584C48.6206 31.6045 48.603 31.7715 48.5913 31.8594L53.1265 24.9688H56.3521V34.7949H53.7593V30.875C53.7593 30.5527 53.771 30.1982 53.7944 29.8115C53.8179 29.4189 53.8442 29.0498 53.8735 28.7041C53.9028 28.3584 53.9233 28.0977 53.9351 27.9219L49.4175 34.7949H46.2007V24.9688H48.7935ZM63.1636 34.9707C62.1909 34.9707 61.3618 34.7949 60.6763 34.4434C59.9907 34.0859 59.4692 33.5352 59.1118 32.791C58.7544 32.0469 58.5757 31.0947 58.5757 29.9346C58.5757 28.7334 58.7778 27.7549 59.1821 26.999C59.5923 26.2373 60.1577 25.6777 60.8784 25.3203C61.605 24.9629 62.4458 24.7842 63.4009 24.7842C64.0806 24.7842 64.6665 24.8516 65.1587 24.9863C65.6567 25.1152 66.0903 25.2705 66.4595 25.4521L65.6685 27.5264C65.2466 27.3564 64.854 27.2188 64.4907 27.1133C64.1274 27.002 63.7642 26.9463 63.4009 26.9463C62.9321 26.9463 62.5425 27.0576 62.2319 27.2803C61.9214 27.4971 61.6899 27.8252 61.5376 28.2646C61.3853 28.7041 61.3091 29.2549 61.3091 29.917C61.3091 30.5674 61.3911 31.1064 61.5552 31.5342C61.7192 31.9619 61.9565 32.2812 62.2671 32.4922C62.5776 32.6973 62.9556 32.7998 63.4009 32.7998C63.9575 32.7998 64.4526 32.7266 64.8862 32.5801C65.3198 32.4277 65.7417 32.2168 66.1519 31.9473V34.2412C65.7417 34.499 65.311 34.6836 64.8599 34.7949C64.4146 34.9121 63.8491 34.9707 63.1636 34.9707Z" fill="#475174"/>
</svg>
